<mxfile host="app.diagrams.net" modified="2023-11-02T03:52:57.090Z" agent="Mozilla/5.0 (Windows NT 10.0; Win64; x64) AppleWebKit/537.36 (KHTML, like Gecko) Chrome/118.0.0.0 Safari/537.36" version="22.0.8" etag="I2qLYzHUVw4aOQfNf0SY" type="github">
  <diagram name="Page-1" id="B20J69tCY1AHWNPDVG4v">
    <mxGraphModel>
      <root>
        <mxCell id="0" />
        <mxCell id="1" parent="0" />
      </root>
    </mxGraphModel>
  </diagram>
</mxfile>
